<mxfile host="app.diagrams.net" modified="2022-07-19T06:23:50.031Z" agent="5.0 (Macintosh; Intel Mac OS X 10_15_7) AppleWebKit/537.36 (KHTML, like Gecko) Chrome/103.0.0.0 Safari/537.36" etag="rqUbLX6ENYJSso9sSxk8" version="20.0.4" type="github">
  <diagram id="mBxuNjo-ZEqrJI4mfsDX" name="Page-1">
    <mxGraphModel dx="946" dy="589" grid="1" gridSize="10" guides="1" tooltips="1" connect="1" arrows="1" fold="1" page="1" pageScale="1" pageWidth="827" pageHeight="1169" math="0" shadow="0">
      <root>
        <mxCell id="0" />
        <mxCell id="1" parent="0" />
        <mxCell id="LkDWhQKCp5KId6YRmDLF-113" value="" style="rounded=0;whiteSpace=wrap;html=1;fillColor=#d5e8d4;strokeColor=#82b366;" parent="1" vertex="1">
          <mxGeometry x="120" y="400" width="280" height="40" as="geometry" />
        </mxCell>
        <mxCell id="LkDWhQKCp5KId6YRmDLF-111" value="&lt;br&gt;&lt;br&gt;&lt;br&gt;Problem Formulation&amp;nbsp; &amp;nbsp; &amp;nbsp; &amp;nbsp; &amp;nbsp; &amp;nbsp; &amp;nbsp; &amp;nbsp; &amp;nbsp; &amp;nbsp; &amp;nbsp; &amp;nbsp; &amp;nbsp; &amp;nbsp; &amp;nbsp; &amp;nbsp; &amp;nbsp; &amp;nbsp; &amp;nbsp; &amp;nbsp; &amp;nbsp; &amp;nbsp; &amp;nbsp;&amp;nbsp;" style="rounded=0;whiteSpace=wrap;html=1;fillColor=#dae8fc;strokeColor=#6c8ebf;" parent="1" vertex="1">
          <mxGeometry x="120" y="320" width="280" height="80" as="geometry" />
        </mxCell>
        <mxCell id="LkDWhQKCp5KId6YRmDLF-112" value="Coding" style="rounded=0;whiteSpace=wrap;html=1;fillColor=#d5e8d4;strokeColor=#82b366;" parent="1" vertex="1">
          <mxGeometry x="240" y="360" width="160" height="80" as="geometry" />
        </mxCell>
        <mxCell id="8xG_soscOhhf34Pj7zWQ-1" value="" style="whiteSpace=wrap;html=1;aspect=fixed;" parent="1" vertex="1">
          <mxGeometry x="120" y="160" width="40" height="40" as="geometry" />
        </mxCell>
        <mxCell id="8xG_soscOhhf34Pj7zWQ-2" value="" style="whiteSpace=wrap;html=1;aspect=fixed;" parent="1" vertex="1">
          <mxGeometry x="160" y="160" width="40" height="40" as="geometry" />
        </mxCell>
        <mxCell id="8xG_soscOhhf34Pj7zWQ-3" value="" style="whiteSpace=wrap;html=1;aspect=fixed;" parent="1" vertex="1">
          <mxGeometry x="120" y="200" width="40" height="40" as="geometry" />
        </mxCell>
        <mxCell id="8xG_soscOhhf34Pj7zWQ-4" value="" style="whiteSpace=wrap;html=1;aspect=fixed;" parent="1" vertex="1">
          <mxGeometry x="160" y="200" width="40" height="40" as="geometry" />
        </mxCell>
        <mxCell id="8xG_soscOhhf34Pj7zWQ-5" value="" style="whiteSpace=wrap;html=1;aspect=fixed;" parent="1" vertex="1">
          <mxGeometry x="120" y="240" width="40" height="40" as="geometry" />
        </mxCell>
        <mxCell id="8xG_soscOhhf34Pj7zWQ-6" value="" style="whiteSpace=wrap;html=1;aspect=fixed;" parent="1" vertex="1">
          <mxGeometry x="160" y="240" width="40" height="40" as="geometry" />
        </mxCell>
        <mxCell id="8xG_soscOhhf34Pj7zWQ-9" value="" style="whiteSpace=wrap;html=1;aspect=fixed;" parent="1" vertex="1">
          <mxGeometry x="200" y="160" width="40" height="40" as="geometry" />
        </mxCell>
        <mxCell id="8xG_soscOhhf34Pj7zWQ-10" value="" style="whiteSpace=wrap;html=1;aspect=fixed;" parent="1" vertex="1">
          <mxGeometry x="240" y="160" width="40" height="40" as="geometry" />
        </mxCell>
        <mxCell id="8xG_soscOhhf34Pj7zWQ-11" value="" style="whiteSpace=wrap;html=1;aspect=fixed;" parent="1" vertex="1">
          <mxGeometry x="200" y="200" width="40" height="40" as="geometry" />
        </mxCell>
        <mxCell id="8xG_soscOhhf34Pj7zWQ-12" value="" style="whiteSpace=wrap;html=1;aspect=fixed;" parent="1" vertex="1">
          <mxGeometry x="240" y="200" width="40" height="40" as="geometry" />
        </mxCell>
        <mxCell id="8xG_soscOhhf34Pj7zWQ-13" value="" style="whiteSpace=wrap;html=1;aspect=fixed;" parent="1" vertex="1">
          <mxGeometry x="200" y="240" width="40" height="40" as="geometry" />
        </mxCell>
        <mxCell id="8xG_soscOhhf34Pj7zWQ-14" value="" style="whiteSpace=wrap;html=1;aspect=fixed;" parent="1" vertex="1">
          <mxGeometry x="240" y="240" width="40" height="40" as="geometry" />
        </mxCell>
        <mxCell id="8xG_soscOhhf34Pj7zWQ-15" value="B" style="ellipse;whiteSpace=wrap;html=1;aspect=fixed;fillColor=#f8cecc;strokeColor=#b85450;" parent="1" vertex="1">
          <mxGeometry x="165" y="165" width="30" height="30" as="geometry" />
        </mxCell>
        <mxCell id="8xG_soscOhhf34Pj7zWQ-16" value="A" style="ellipse;whiteSpace=wrap;html=1;aspect=fixed;fillColor=#dae8fc;strokeColor=#6c8ebf;" parent="1" vertex="1">
          <mxGeometry x="205" y="245" width="30" height="30" as="geometry" />
        </mxCell>
        <mxCell id="8xG_soscOhhf34Pj7zWQ-18" value="" style="ellipse;whiteSpace=wrap;html=1;aspect=fixed;fillColor=#f8cecc;strokeColor=#b85450;dashed=1;opacity=50;" parent="1" vertex="1">
          <mxGeometry x="205" y="165" width="30" height="30" as="geometry" />
        </mxCell>
        <mxCell id="8xG_soscOhhf34Pj7zWQ-22" value="" style="endArrow=classic;html=1;rounded=0;exitX=1;exitY=0.5;exitDx=0;exitDy=0;entryX=0;entryY=0.5;entryDx=0;entryDy=0;" parent="1" source="8xG_soscOhhf34Pj7zWQ-15" target="8xG_soscOhhf34Pj7zWQ-18" edge="1">
          <mxGeometry width="50" height="50" relative="1" as="geometry">
            <mxPoint x="188" y="223" as="sourcePoint" />
            <mxPoint x="238" y="173" as="targetPoint" />
          </mxGeometry>
        </mxCell>
        <mxCell id="8xG_soscOhhf34Pj7zWQ-24" value="" style="endArrow=classic;html=1;rounded=0;exitX=0.5;exitY=0;exitDx=0;exitDy=0;dashed=1;" parent="1" source="8xG_soscOhhf34Pj7zWQ-16" edge="1">
          <mxGeometry width="50" height="50" relative="1" as="geometry">
            <mxPoint x="204" y="247" as="sourcePoint" />
            <mxPoint x="220" y="218" as="targetPoint" />
          </mxGeometry>
        </mxCell>
        <mxCell id="8xG_soscOhhf34Pj7zWQ-25" value="" style="endArrow=classic;html=1;rounded=0;exitX=0;exitY=0.5;exitDx=0;exitDy=0;dashed=1;" parent="1" source="8xG_soscOhhf34Pj7zWQ-16" edge="1">
          <mxGeometry width="50" height="50" relative="1" as="geometry">
            <mxPoint x="230" y="255" as="sourcePoint" />
            <mxPoint x="181" y="260" as="targetPoint" />
          </mxGeometry>
        </mxCell>
        <mxCell id="8xG_soscOhhf34Pj7zWQ-26" value="" style="ellipse;whiteSpace=wrap;html=1;aspect=fixed;fillColor=#f5f5f5;strokeColor=#666666;fontColor=#333333;" parent="1" vertex="1">
          <mxGeometry x="291" y="165" width="30" height="30" as="geometry" />
        </mxCell>
        <mxCell id="8xG_soscOhhf34Pj7zWQ-27" value="" style="ellipse;whiteSpace=wrap;html=1;aspect=fixed;fillColor=#f5f5f5;strokeColor=#666666;fontColor=#333333;dashed=1;opacity=50;" parent="1" vertex="1">
          <mxGeometry x="291" y="205" width="30" height="30" as="geometry" />
        </mxCell>
        <mxCell id="8xG_soscOhhf34Pj7zWQ-28" value="t 시점" style="text;html=1;strokeColor=none;fillColor=none;align=center;verticalAlign=middle;whiteSpace=wrap;rounded=0;dashed=1;opacity=50;" parent="1" vertex="1">
          <mxGeometry x="321" y="165" width="60" height="30" as="geometry" />
        </mxCell>
        <mxCell id="8xG_soscOhhf34Pj7zWQ-29" value="t +1 시점" style="text;html=1;strokeColor=none;fillColor=none;align=center;verticalAlign=middle;whiteSpace=wrap;rounded=0;dashed=1;opacity=50;" parent="1" vertex="1">
          <mxGeometry x="321" y="205" width="60" height="30" as="geometry" />
        </mxCell>
        <mxCell id="8xG_soscOhhf34Pj7zWQ-31" value="k" style="ellipse;whiteSpace=wrap;html=1;aspect=fixed;dashed=1;opacity=50;fillColor=#007FFF;strokeColor=none;" parent="1" vertex="1">
          <mxGeometry x="192" y="158" width="16" height="16" as="geometry" />
        </mxCell>
        <mxCell id="LkDWhQKCp5KId6YRmDLF-67" value="1" style="text;html=1;align=center;verticalAlign=middle;resizable=0;points=[];autosize=1;strokeColor=none;fillColor=none;" parent="1" vertex="1">
          <mxGeometry x="85" y="325" width="30" height="30" as="geometry" />
        </mxCell>
        <mxCell id="LkDWhQKCp5KId6YRmDLF-68" value="2" style="text;html=1;align=center;verticalAlign=middle;resizable=0;points=[];autosize=1;strokeColor=none;fillColor=none;" parent="1" vertex="1">
          <mxGeometry x="85" y="365" width="30" height="30" as="geometry" />
        </mxCell>
        <mxCell id="LkDWhQKCp5KId6YRmDLF-69" value="3" style="text;html=1;align=center;verticalAlign=middle;resizable=0;points=[];autosize=1;strokeColor=none;fillColor=none;" parent="1" vertex="1">
          <mxGeometry x="85" y="405" width="30" height="30" as="geometry" />
        </mxCell>
        <mxCell id="LkDWhQKCp5KId6YRmDLF-71" value="4" style="text;html=1;align=center;verticalAlign=middle;resizable=0;points=[];autosize=1;strokeColor=none;fillColor=none;" parent="1" vertex="1">
          <mxGeometry x="85" y="445" width="30" height="30" as="geometry" />
        </mxCell>
        <mxCell id="LkDWhQKCp5KId6YRmDLF-72" value="5" style="text;html=1;align=center;verticalAlign=middle;resizable=0;points=[];autosize=1;strokeColor=none;fillColor=none;" parent="1" vertex="1">
          <mxGeometry x="85" y="485" width="30" height="30" as="geometry" />
        </mxCell>
        <mxCell id="LkDWhQKCp5KId6YRmDLF-73" value="6" style="text;html=1;align=center;verticalAlign=middle;resizable=0;points=[];autosize=1;strokeColor=none;fillColor=none;" parent="1" vertex="1">
          <mxGeometry x="85" y="525" width="30" height="30" as="geometry" />
        </mxCell>
        <mxCell id="LkDWhQKCp5KId6YRmDLF-74" value="7" style="text;html=1;align=center;verticalAlign=middle;resizable=0;points=[];autosize=1;strokeColor=none;fillColor=none;" parent="1" vertex="1">
          <mxGeometry x="85" y="565" width="30" height="30" as="geometry" />
        </mxCell>
        <mxCell id="LkDWhQKCp5KId6YRmDLF-75" value="8" style="text;html=1;align=center;verticalAlign=middle;resizable=0;points=[];autosize=1;strokeColor=none;fillColor=none;" parent="1" vertex="1">
          <mxGeometry x="85" y="605" width="30" height="30" as="geometry" />
        </mxCell>
        <mxCell id="LkDWhQKCp5KId6YRmDLF-76" value="9" style="text;html=1;align=center;verticalAlign=middle;resizable=0;points=[];autosize=1;strokeColor=none;fillColor=none;" parent="1" vertex="1">
          <mxGeometry x="85" y="645" width="30" height="30" as="geometry" />
        </mxCell>
        <mxCell id="LkDWhQKCp5KId6YRmDLF-105" value="10&lt;br&gt;" style="text;html=1;align=center;verticalAlign=middle;resizable=0;points=[];autosize=1;strokeColor=none;fillColor=none;" parent="1" vertex="1">
          <mxGeometry x="80" y="685" width="40" height="30" as="geometry" />
        </mxCell>
        <mxCell id="LkDWhQKCp5KId6YRmDLF-106" value="11" style="text;html=1;align=center;verticalAlign=middle;resizable=0;points=[];autosize=1;strokeColor=none;fillColor=none;" parent="1" vertex="1">
          <mxGeometry x="80" y="725" width="40" height="30" as="geometry" />
        </mxCell>
        <mxCell id="LkDWhQKCp5KId6YRmDLF-107" value="12" style="text;html=1;align=center;verticalAlign=middle;resizable=0;points=[];autosize=1;strokeColor=none;fillColor=none;" parent="1" vertex="1">
          <mxGeometry x="80" y="765" width="40" height="30" as="geometry" />
        </mxCell>
        <mxCell id="LkDWhQKCp5KId6YRmDLF-108" value="13" style="text;html=1;align=center;verticalAlign=middle;resizable=0;points=[];autosize=1;strokeColor=none;fillColor=none;" parent="1" vertex="1">
          <mxGeometry x="80" y="805" width="40" height="30" as="geometry" />
        </mxCell>
        <mxCell id="LkDWhQKCp5KId6YRmDLF-109" value="주제 선정" style="rounded=0;whiteSpace=wrap;html=1;fillColor=#f8cecc;strokeColor=#b85450;" parent="1" vertex="1">
          <mxGeometry x="120" y="320" width="120" height="40" as="geometry" />
        </mxCell>
        <mxCell id="LkDWhQKCp5KId6YRmDLF-115" value="(논문) Main body 작성 with hyperparameter tuning" style="rounded=0;whiteSpace=wrap;html=1;fillColor=#f8cecc;strokeColor=#b85450;" parent="1" vertex="1">
          <mxGeometry x="120" y="440" width="280" height="40" as="geometry" />
        </mxCell>
        <mxCell id="LkDWhQKCp5KId6YRmDLF-116" value="Performance Evaluation" style="rounded=0;whiteSpace=wrap;html=1;fillColor=#dae8fc;strokeColor=#6c8ebf;" parent="1" vertex="1">
          <mxGeometry x="120" y="480" width="280" height="80" as="geometry" />
        </mxCell>
        <mxCell id="LkDWhQKCp5KId6YRmDLF-117" value="Performance Comparison&lt;br&gt;1) Algorithm 찾기&lt;br&gt;2) Coding&lt;br&gt;3) Comparison table 구성" style="rounded=0;whiteSpace=wrap;html=1;fillColor=#d5e8d4;strokeColor=#82b366;" parent="1" vertex="1">
          <mxGeometry x="120" y="560" width="280" height="80" as="geometry" />
        </mxCell>
        <mxCell id="LkDWhQKCp5KId6YRmDLF-118" value="Related works 작성" style="rounded=0;whiteSpace=wrap;html=1;fillColor=#f8cecc;strokeColor=#b85450;" parent="1" vertex="1">
          <mxGeometry x="120" y="640" width="280" height="40" as="geometry" />
        </mxCell>
        <mxCell id="LkDWhQKCp5KId6YRmDLF-119" value="논문 draft 완성&lt;br&gt;&lt;br&gt;" style="rounded=0;whiteSpace=wrap;html=1;fillColor=#dae8fc;strokeColor=#6c8ebf;" parent="1" vertex="1">
          <mxGeometry x="120" y="680" width="280" height="80" as="geometry" />
        </mxCell>
        <mxCell id="LkDWhQKCp5KId6YRmDLF-120" value="논문 Review 받기&lt;br&gt;Supplementary 작성" style="rounded=0;whiteSpace=wrap;html=1;fillColor=#d5e8d4;strokeColor=#82b366;" parent="1" vertex="1">
          <mxGeometry x="240" y="720" width="160" height="40" as="geometry" />
        </mxCell>
        <mxCell id="LkDWhQKCp5KId6YRmDLF-121" value="논문 수정" style="rounded=0;whiteSpace=wrap;html=1;fillColor=#f8cecc;strokeColor=#b85450;" parent="1" vertex="1">
          <mxGeometry x="120" y="760" width="280" height="80" as="geometry" />
        </mxCell>
      </root>
    </mxGraphModel>
  </diagram>
</mxfile>
